<svg width="934" height="302" viewBox="0 0 934 302" fill="none" xmlns="http://www.w3.org/2000/svg">
<path d="M200.265 65.9934C196.2 62.0065 191.901 58.2662 187.39 54.7924C186.616 54.2123 185.731 53.7984 184.789 53.5768C183.847 53.3553 182.87 53.3308 181.919 53.505C155.313 57.8999 128.415 60.2884 101.452 60.6504C74.4359 60.1691 47.4944 57.6515 20.8569 53.1187C19.9055 52.9406 18.9273 52.9631 17.9851 53.1848C17.0429 53.4065 16.1573 53.8225 15.3852 54.4062C10.8195 58.001 6.47695 61.8705 2.38178 65.9934C1.06436 67.1 0.213639 68.6635 -3.05176e-05 70.3707C-3.05176e-05 76.3575 -3.05176e-05 81.3142 -3.05176e-05 86.0778C-3.05176e-05 90.8414 -3.05176e-05 97.15 0.386208 103.587C2.15014 147.554 10.7057 190.983 25.7492 232.334C26.144 233.425 26.8083 234.4 27.6804 235.166C48.1511 252.997 79.9514 267.739 101.452 267.739C122.953 267.739 154.496 253.062 175.095 235.166C175.967 234.4 176.631 233.425 177.026 232.334C192.026 190.976 200.538 147.547 202.26 103.587C202.26 97.15 202.647 91.4851 202.647 86.1422C202.647 80.7992 202.647 76.3575 202.647 70.4351C202.449 68.7048 201.597 67.1157 200.265 65.9934Z" fill="white"/>
<path d="M342.061 166.054H259.376V166.53C259.376 172.726 260.647 177.571 263.189 181.066C265.889 184.402 269.543 186.07 274.15 186.07C281.14 186.07 286.938 182.972 291.545 176.777H338.01C332.292 189.485 322.76 199.97 309.416 208.23C296.231 216.332 282.252 220.383 267.478 220.383C250.639 220.383 237.136 215.776 226.969 206.562C216.802 197.19 211.719 185.037 211.719 170.105C211.719 149.612 219.344 132.217 234.594 117.92C249.845 103.623 268.113 96.4742 289.4 96.4742C306.08 96.4742 319.424 101.16 329.432 110.533C339.599 119.747 344.682 131.899 344.682 146.991C344.682 153.027 343.809 159.382 342.061 166.054ZM284.396 130.787C276.771 130.787 270.496 134.918 265.571 143.178H299.17C298.534 139.207 296.866 136.188 294.166 134.123C291.624 131.899 288.368 130.787 284.396 130.787ZM475.608 166.292C471.795 182.019 462.978 194.966 449.158 205.133C435.496 215.299 419.928 220.383 402.454 220.383C385.615 220.383 372.112 215.776 361.945 206.562C351.778 197.19 346.695 185.037 346.695 170.105C346.695 149.612 354.32 132.217 369.57 117.92C384.821 103.623 403.089 96.4742 424.376 96.4742C440.579 96.4742 453.685 100.922 463.693 109.818C473.701 118.714 478.705 130.311 478.705 144.608C478.705 146.832 478.626 148.818 478.467 150.565H432.478C432.16 146.276 430.73 142.781 428.189 140.08C425.647 137.38 422.152 136.03 417.704 136.03C411.35 136.03 405.79 138.73 401.024 144.131C396.258 149.533 393.875 155.887 393.875 163.194C393.875 168.595 395.305 172.885 398.165 176.062C401.024 179.239 404.837 180.827 409.602 180.827C414.05 180.827 418.022 179.477 421.517 176.777C425.17 174.076 427.95 170.581 429.857 166.292H475.608ZM519.847 218H474.096L485.772 151.995C488.79 134.997 497.21 121.891 511.03 112.678C525.01 103.464 543.437 98.857 566.313 98.857L559.641 136.744C542.643 136.744 532.952 143.337 530.57 156.522L519.847 218ZM696.761 98.857L684.37 168.437C681.67 183.528 673.806 195.998 660.78 205.847C647.912 215.538 632.821 220.383 615.506 220.383C599.938 220.383 587.388 216.411 577.856 208.469C568.325 200.526 563.559 190.121 563.559 177.253C563.559 174.076 563.877 170.661 564.512 167.007L576.665 98.857H622.416L610.025 168.437C609.866 169.549 609.787 170.502 609.787 171.296C609.787 174.791 610.899 177.65 613.123 179.874C615.347 181.939 618.286 182.972 621.939 182.972C626.07 182.972 629.644 181.622 632.662 178.921C635.839 176.062 637.825 172.567 638.619 168.437L651.01 98.857H696.761ZM759.842 47.149C763.972 51.597 765.402 57.3158 764.131 64.3056C762.86 71.2953 759.365 77.0142 753.646 81.4622C747.927 85.9102 741.176 88.1342 733.392 88.1342C725.608 88.1342 719.651 85.9102 715.52 81.4622C711.39 77.0142 709.96 71.2953 711.231 64.3056C712.502 57.3158 715.997 51.597 721.716 47.149C727.435 42.701 734.186 40.477 741.97 40.477C749.754 40.477 755.711 42.701 759.842 47.149ZM708.61 98.857H754.361L733.392 218H687.641L708.61 98.857ZM856.528 98.857L849.856 136.744H823.883L809.586 218H763.835L778.132 136.744H755.971L762.643 98.857H784.804L790.523 67.165H836.274L830.555 98.857H856.528ZM886.705 218H840.954L852.63 151.995C855.648 134.997 864.068 121.891 877.888 112.678C891.868 103.464 910.295 98.857 933.17 98.857L926.498 136.744C909.501 136.744 899.81 143.337 897.428 156.522L886.705 218Z" fill="white"/>
<path d="M109.989 218H64.2383L75.9143 151.995C78.9326 134.997 87.352 121.891 101.173 112.678C115.152 103.464 133.579 98.857 156.455 98.857L149.783 136.744C132.785 136.744 123.095 143.337 120.712 156.522L109.989 218Z" fill="black"/>
</svg>
